<?xml version="1.0" standalone="no"?>
<!DOCTYPE svg PUBLIC "-//W3C//DTD SVG 20010904//EN"
 "http://www.w3.org/TR/2001/REC-SVG-20010904/DTD/svg10.dtd">
<svg version="1.0" xmlns="http://www.w3.org/2000/svg"
 width="500.000000pt" height="500.000000pt" viewBox="0 0 500.000000 500.000000"
 preserveAspectRatio="xMidYMid meet">
<metadata>
Created by potrace 1.14, written by Peter Selinger 2001-2017
</metadata>
<g transform="translate(0.000000,500.000000) scale(0.100000,-0.100000)"
fill="#000000" stroke="none">
<path d="M0 2500 l0 -2500 2500 0 2500 0 0 2500 0 2500 -2500 0 -2500 0 0
-2500z m2872 692 c246 -43 271 -58 312 -191 15 -50 26 -96 23 -103 -2 -7 -7 1
-11 17 -12 51 -59 108 -111 137 -104 56 -336 95 -501 85 -140 -8 -180 -47
-177 -176 2 -104 38 -173 112 -218 78 -47 123 -54 360 -60 258 -6 284 -1 312
60 10 23 19 60 20 82 l1 40 10 -45 c14 -69 5 -259 -15 -296 -29 -56 -51 -59
-377 -58 -291 2 -402 11 -427 37 -6 6 -20 82 -30 167 l-19 154 -29 1 c-21 0
-33 7 -42 25 -16 31 -17 184 -2 212 6 11 8 22 5 25 -7 8 -134 -16 -172 -32
l-33 -13 73 -75 c40 -40 92 -105 114 -143 39 -64 87 -183 78 -191 -2 -2 -18
20 -37 49 -53 85 -147 205 -164 212 -44 17 -68 5 -144 -68 -42 -41 -103 -91
-136 -111 -60 -36 -174 -76 -250 -89 -33 -6 -25 0 40 29 133 58 265 159 265
201 0 58 -253 34 -427 -41 -116 -50 11 29 269 167 188 101 371 179 503 214 84
23 103 24 290 20 139 -3 236 -10 317 -24z m-77 -282 c-3 -5 -12 -10 -18 -10
-7 0 -6 4 3 10 19 12 23 12 15 0z m-134 -496 c13 -4 39 -62 39 -88 0 -9 -165
-6 -224 3 -50 8 -66 22 -66 57 0 41 18 46 130 39 58 -3 112 -8 121 -11z m567
4 c16 -16 15 -53 -2 -67 -19 -16 -187 -34 -199 -22 -6 6 -6 24 0 48 8 37 10
38 63 44 95 10 126 9 138 -3z m-1985 -229 c42 -11 41 -10 25 -56 -10 -27 -16
-32 -33 -26 -11 4 -38 8 -60 8 -59 0 -51 -24 19 -62 72 -38 86 -55 86 -106 0
-31 -7 -46 -34 -73 -35 -35 -56 -40 -136 -34 -66 4 -80 15 -80 61 0 34 3 40
16 35 54 -21 103 -27 124 -16 31 16 21 31 -41 62 -30 16 -62 37 -71 49 -21 25
-23 96 -4 121 33 44 110 59 189 37z m734 -16 c49 -36 68 -80 68 -158 -1 -84
-26 -134 -81 -160 -45 -21 -133 -21 -178 0 -114 54 -111 268 4 328 48 25 149
19 187 -10z m731 -153 l60 -180 -52 0 c-51 0 -53 1 -62 33 -9 31 -12 32 -65
35 -55 3 -56 3 -65 -30 -9 -31 -12 -33 -63 -36 -51 -3 -52 -2 -46 20 4 13 30
94 58 181 l52 157 61 0 62 0 60 -180z m-1278 105 l0 -65 55 0 55 0 0 65 0 65
50 0 50 0 0 -175 0 -175 -50 0 -50 0 0 70 0 70 -55 0 -55 0 0 -70 0 -70 -45 0
-45 0 0 175 0 175 45 0 45 0 0 -65z m921 36 c35 -36 37 -70 5 -107 l-23 -28
22 -18 c31 -24 38 -61 21 -103 -21 -49 -63 -65 -176 -65 l-90 0 0 175 0 175
106 0 c103 0 106 -1 135 -29z m669 -6 l0 -35 -60 0 -60 0 0 -35 0 -35 55 0 55
0 0 -40 0 -40 -55 0 -55 0 0 -65 0 -65 -45 0 -45 0 0 175 0 175 105 0 105 0 0
-35z m150 -81 c0 -135 7 -154 55 -154 48 0 55 19 55 154 l0 116 51 0 51 0 -4
-133 c-2 -106 -7 -138 -21 -160 -25 -38 -71 -58 -132 -58 -29 0 -67 7 -84 15
-56 30 -65 55 -69 203 l-4 133 51 0 51 0 0 -116z m530 89 c0 -19 -26 -64 -74
-133 l-74 -105 74 -3 74 -3 0 -39 0 -40 -135 0 -135 0 0 31 c0 22 21 62 76
140 l75 109 -75 0 -76 0 0 35 0 35 135 0 135 0 0 -27z m260 -8 l0 -35 -55 0
c-54 0 -55 0 -55 -30 0 -30 0 -30 56 -30 l55 0 -3 -37 -3 -38 -52 -3 c-51 -3
-53 -4 -53 -33 0 -29 1 -29 55 -29 l55 0 0 -40 0 -40 -105 0 -105 0 0 175 0
175 105 0 105 0 0 -35z m-2680 -540 c0 -88 -1 -95 -20 -95 -19 0 -20 7 -20 95
0 88 1 95 20 95 19 0 20 -7 20 -95z m137 28 l38 -68 3 68 c3 59 5 67 22 67 18
0 20 -7 20 -95 l0 -95 -29 0 c-26 0 -34 8 -70 73 l-41 72 0 -72 c0 -58 -3 -73
-15 -73 -12 0 -15 17 -15 95 0 94 0 95 25 95 19 0 31 -13 62 -67z m253 52 c0
-9 -9 -15 -25 -15 -25 0 -25 -1 -25 -80 0 -73 -2 -80 -20 -80 -17 0 -19 8 -22
78 -3 76 -3 77 -30 80 -16 2 -28 9 -28 18 0 11 17 14 75 14 60 0 75 -3 75 -15z
m140 0 c0 -10 -11 -15 -35 -15 -28 0 -35 -4 -35 -20 0 -16 7 -20 30 -20 23 0
30 -4 30 -20 0 -16 -7 -20 -30 -20 -25 0 -30 -4 -30 -25 0 -22 4 -25 35 -25
24 0 35 -5 35 -15 0 -12 -13 -15 -55 -15 l-55 0 0 95 0 95 55 0 c42 0 55 -3
55 -15z m150 -5 c24 -24 25 -34 4 -70 -16 -27 -16 -29 11 -64 l27 -36 -25 0
c-18 0 -31 10 -46 35 -11 19 -25 35 -31 35 -5 0 -10 -16 -10 -35 0 -28 -4 -35
-20 -35 -19 0 -20 7 -20 95 l0 95 45 0 c32 0 51 -6 65 -20z m100 -60 l0 -80
40 0 c29 0 40 -4 40 -15 0 -12 -13 -15 -60 -15 l-60 0 0 95 c0 88 1 95 20 95
18 0 20 -7 20 -80z m150 -15 c0 -88 -1 -95 -20 -95 -19 0 -20 7 -20 95 0 88 1
95 20 95 19 0 20 -7 20 -95z m140 32 l35 -62 3 63 c3 54 6 62 22 62 18 0 20
-7 20 -96 l0 -95 -27 3 c-21 2 -35 17 -65 68 l-38 65 0 -67 c0 -61 -2 -68 -20
-68 -19 0 -20 7 -20 95 l0 95 28 0 c23 0 32 -10 62 -63z m240 48 c0 -10 -11
-15 -35 -15 -28 0 -35 -4 -35 -20 0 -16 7 -20 30 -20 23 0 30 -4 30 -20 0 -16
-7 -20 -30 -20 -25 0 -30 -4 -30 -25 0 -22 4 -25 35 -25 24 0 35 -5 35 -15 0
-12 -13 -15 -55 -15 l-55 0 0 95 0 95 55 0 c42 0 55 -3 55 -15z m220 0 c0 -10
-11 -15 -35 -15 -28 0 -35 -4 -35 -20 0 -16 7 -20 30 -20 23 0 30 -4 30 -20 0
-16 -7 -20 -30 -20 -25 0 -30 -4 -30 -25 0 -22 4 -25 35 -25 24 0 35 -5 35
-15 0 -12 -13 -15 -55 -15 l-55 0 0 95 0 95 55 0 c42 0 55 -3 55 -15z m78 -15
c21 -37 28 -37 47 0 9 18 23 30 35 30 26 0 25 -3 -5 -48 -14 -20 -25 -40 -25
-45 0 -5 14 -28 30 -53 l31 -44 -25 0 c-18 0 -30 9 -41 30 -9 17 -20 30 -25
30 -5 0 -16 -13 -25 -30 -9 -18 -23 -30 -35 -30 -26 0 -25 8 7 55 l27 39 -27
48 c-26 46 -26 48 -7 48 13 0 28 -12 38 -30z m247 16 c20 -15 25 -70 8 -87 -6
-6 -26 -14 -45 -18 -28 -6 -33 -11 -36 -39 -2 -24 -8 -32 -23 -32 -17 0 -19 8
-19 95 l0 95 48 0 c27 0 57 -6 67 -14z m169 -2 c20 -20 20 -58 0 -78 -14 -15
-14 -18 4 -43 34 -49 34 -53 13 -53 -13 0 -30 14 -43 35 -30 45 -48 45 -48 0
0 -28 -4 -35 -20 -35 -19 0 -20 7 -20 95 l0 95 49 0 c32 0 55 -6 65 -16z m176
1 c0 -10 -11 -15 -35 -15 -28 0 -35 -4 -35 -20 0 -16 7 -20 30 -20 23 0 30 -4
30 -20 0 -16 -7 -20 -30 -20 -25 0 -30 -4 -30 -25 0 -22 4 -25 35 -25 24 0 35
-5 35 -15 0 -12 -13 -15 -55 -15 l-55 0 0 95 0 95 55 0 c42 0 55 -3 55 -15z
m137 7 c20 -12 -1 -32 -31 -29 -42 3 -43 -20 -2 -44 74 -43 52 -113 -33 -107
-35 2 -47 7 -49 21 -3 15 3 17 39 15 56 -4 60 15 10 47 -32 20 -41 31 -41 53
0 15 5 33 12 40 13 13 76 16 95 4z m151 -15 c3 -16 -1 -17 -32 -11 -32 5 -36
4 -36 -14 0 -12 11 -24 31 -32 40 -17 55 -54 34 -87 -14 -21 -23 -24 -63 -21
-35 2 -48 7 -50 20 -3 14 4 17 39 15 52 -2 62 16 20 38 -17 8 -38 27 -47 40
-15 23 -15 27 0 51 15 21 23 25 59 22 31 -2 43 -8 45 -21z"/>
<path d="M1838 2109 c-38 -22 -45 -132 -10 -171 21 -25 74 -23 98 3 24 27 25
115 1 152 -19 29 -57 35 -89 16z"/>
<path d="M2568 2055 l-15 -65 33 0 c19 0 34 5 34 11 0 13 -30 119 -34 119 -1
0 -9 -29 -18 -65z"/>
<path d="M2210 2090 c0 -29 2 -31 33 -28 27 2 32 7 32 28 0 21 -5 26 -32 28
-31 3 -33 1 -33 -28z"/>
<path d="M2210 1949 c0 -41 0 -41 32 -35 29 6 47 20 48 38 0 15 -33 38 -56 38
-22 0 -24 -4 -24 -41z"/>
<path d="M1890 1655 c0 -18 5 -25 19 -25 26 0 36 17 21 35 -19 23 -40 18 -40
-10z"/>
<path d="M3064 1666 c-9 -24 4 -48 23 -44 12 2 18 12 18 28 0 29 -32 41 -41
16z"/>
<path d="M3230 1655 c0 -18 5 -25 20 -25 25 0 38 29 19 41 -25 15 -39 10 -39
-16z"/>
</g>
</svg>
